<!-- Generated by IcoMoon.io -->
<svg version="1.1" xmlns="http://www.w3.org/2000/svg" width="33" height="33" viewBox="0 0 33 33">
<title>file-pdf</title>
<path d="M27.135 18.997c-0.44-0.433-1.415-0.663-2.899-0.682-1.005-0.011-2.214 0.077-3.486 0.255-0.57-0.329-1.157-0.686-1.617-1.117-1.239-1.157-2.274-2.764-2.919-4.531 0.042-0.165 0.078-0.31 0.111-0.458 0 0 0.698-3.966 0.513-5.307-0.026-0.184-0.041-0.237-0.090-0.38l-0.061-0.156c-0.19-0.438-0.562-0.902-1.146-0.877l-0.352-0.011c-0.651 0-1.182 0.333-1.321 0.831-0.423 1.561 0.013 3.896 0.805 6.92l-0.203 0.493c-0.567 1.382-1.277 2.773-1.904 4.001l-0.081 0.16c-0.659 1.29-1.258 2.386-1.8 3.314l-0.56 0.296c-0.041 0.022-1 0.529-1.226 0.665-1.91 1.14-3.175 2.434-3.385 3.462-0.067 0.328-0.017 0.747 0.323 0.941l0.542 0.273c0.235 0.118 0.483 0.177 0.737 0.177 1.36 0 2.939-1.694 5.114-5.49 2.511-0.818 5.371-1.497 7.877-1.872 1.91 1.075 4.258 1.822 5.741 1.822 0.263 0 0.49-0.025 0.675-0.074 0.284-0.075 0.524-0.237 0.67-0.457 0.288-0.433 0.346-1.029 0.268-1.64-0.023-0.181-0.168-0.405-0.324-0.558zM6.821 26.234c0.248-0.678 1.23-2.019 2.681-3.208 0.091-0.074 0.316-0.285 0.522-0.48-1.518 2.421-2.535 3.386-3.203 3.689zM15.418 6.435c0.437 0 0.686 1.102 0.707 2.135s-0.221 1.758-0.521 2.295c-0.248-0.794-0.368-2.046-0.368-2.865 0 0-0.018-1.565 0.182-1.565v0zM12.854 20.544c0.305-0.545 0.621-1.12 0.945-1.73 0.789-1.493 1.288-2.66 1.659-3.621 0.738 1.343 1.658 2.485 2.739 3.4 0.135 0.114 0.278 0.229 0.428 0.343-2.198 0.435-4.098 0.964-5.771 1.607v0zM26.713 20.42c-0.134 0.084-0.517 0.132-0.764 0.132-0.796 0-1.781-0.364-3.162-0.956 0.531-0.039 1.017-0.059 1.453-0.059 0.799 0 1.035-0.003 1.816 0.196s0.791 0.604 0.657 0.687v0z"></path>
<path d="M29.578 7.382c-0.716-0.976-1.714-2.117-2.809-3.213s-2.237-2.094-3.213-2.809c-1.662-1.219-2.468-1.36-2.93-1.36h-15.984c-1.422 0-2.578 1.157-2.578 2.578v27.844c0 1.422 1.156 2.578 2.578 2.578h23.719c1.422 0 2.578-1.157 2.578-2.578v-20.109c0-0.462-0.141-1.268-1.36-2.93v0zM25.31 5.628c0.989 0.989 1.766 1.882 2.339 2.622h-4.961v-4.961c0.741 0.573 1.633 1.35 2.622 2.339v0zM28.875 30.422c0 0.279-0.236 0.516-0.516 0.516h-23.719c-0.279 0-0.516-0.236-0.516-0.516v-27.844c0-0.279 0.236-0.516 0.516-0.516 0 0 15.983-0 15.984 0v7.219c0 0.57 0.462 1.031 1.031 1.031h7.219v20.109z"></path>
</svg>
