<!-- Generated by IcoMoon.io -->
<svg version="1.1" xmlns="http://www.w3.org/2000/svg" width="33" height="33" viewBox="0 0 33 33">
<title>printer</title>
<path d="M8.25 2.063h16.5v4.125h-16.5v-4.125z"></path>
<path d="M30.938 8.25h-28.875c-1.134 0-2.063 0.928-2.063 2.063v10.313c0 1.134 0.928 2.063 2.063 2.063h6.188v8.25h16.5v-8.25h6.188c1.134 0 2.063-0.928 2.063-2.063v-10.313c0-1.134-0.928-2.063-2.063-2.063zM4.125 14.438c-1.139 0-2.063-0.923-2.063-2.063s0.923-2.063 2.063-2.063 2.063 0.923 2.063 2.063-0.923 2.063-2.063 2.063zM22.688 28.875h-12.375v-10.313h12.375v10.313z"></path>
</svg>
