<!-- Generated by IcoMoon.io -->
<svg version="1.1" xmlns="http://www.w3.org/2000/svg" width="33" height="33" viewBox="0 0 33 33">
<title>search</title>
<path d="M31.977 28.082l-7.817-6.648c-0.808-0.727-1.672-1.061-2.37-1.029 1.845-2.161 2.96-4.965 2.96-8.030 0-6.835-5.54-12.375-12.375-12.375s-12.375 5.54-12.375 12.375 5.54 12.375 12.375 12.375c3.065 0 5.869-1.115 8.030-2.96-0.032 0.698 0.302 1.562 1.029 2.37l6.648 7.817c1.138 1.265 2.998 1.371 4.132 0.237s1.028-2.994-0.237-4.132zM12.375 20.625c-4.556 0-8.25-3.694-8.25-8.25s3.694-8.25 8.25-8.25 8.25 3.694 8.25 8.25-3.694 8.25-8.25 8.25z"></path>
</svg>
