<svg aria-hidden="true" style="position: absolute; width: 0; height: 0; overflow: hidden;" version="1.1" xmlns="http://www.w3.org/2000/svg" xmlns:xlink="http://www.w3.org/1999/xlink">
<defs>
<symbol id="icon-chevron-right" viewBox="0 0 20 20">
<title>chevron-right</title>
<path d="M9.163 4.516c0.418 0.408 4.502 4.695 4.502 4.695 0.223 0.219 0.335 0.504 0.335 0.789s-0.112 0.57-0.335 0.787c0 0-4.084 4.289-4.502 4.695-0.418 0.408-1.17 0.436-1.615 0-0.446-0.434-0.481-1.041 0-1.574l3.747-3.908-3.747-3.908c-0.481-0.533-0.446-1.141 0-1.576s1.197-0.409 1.615 0z"></path>
</symbol>
<symbol id="icon-chevron-small-right" viewBox="0 0 20 20">
<title>chevron-small-right</title>
<path d="M11 10l-3.141-3.42c-0.268-0.27-0.268-0.707 0-0.978 0.268-0.27 0.701-0.27 0.969 0l3.83 3.908c0.268 0.271 0.268 0.709 0 0.979l-3.83 3.908c-0.267 0.272-0.701 0.27-0.969 0s-0.268-0.707 0-0.978l3.141-3.419z"></path>
</symbol>
<symbol id="icon-triangle-down" viewBox="0 0 20 20">
<title>triangle-down</title>
<path d="M5 6h10l-5 9-5-9z"></path>
</symbol>
<symbol id="icon-circle-with-plus" viewBox="0 0 20 20">
<title>circle-with-plus</title>
<path d="M10 1.6c-4.639 0-8.4 3.761-8.4 8.4s3.761 8.4 8.4 8.4 8.4-3.761 8.4-8.4c0-4.639-3.761-8.4-8.4-8.4zM15 11h-4v4h-2v-4h-4v-2h4v-4h2v4h4v2z"></path>
</symbol>
<symbol id="icon-info-with-circle" viewBox="0 0 20 20">
<title>info-with-circle</title>
<path d="M10 0.4c-5.303 0-9.601 4.298-9.601 9.6 0 5.303 4.298 9.601 9.601 9.601 5.301 0 9.6-4.298 9.6-9.601s-4.299-9.6-9.6-9.6zM10.896 3.866c0.936 0 1.211 0.543 1.211 1.164 0 0.775-0.62 1.492-1.679 1.492-0.886 0-1.308-0.445-1.282-1.182 0-0.621 0.519-1.474 1.75-1.474zM8.498 15.75c-0.64 0-1.107-0.389-0.66-2.094l0.733-3.025c0.127-0.484 0.148-0.678 0-0.678-0.191 0-1.022 0.334-1.512 0.664l-0.319-0.523c1.555-1.299 3.343-2.061 4.108-2.061 0.64 0 0.746 0.756 0.427 1.92l-0.84 3.18c-0.149 0.562-0.085 0.756 0.064 0.756 0.192 0 0.82-0.232 1.438-0.719l0.362 0.486c-1.513 1.512-3.162 2.094-3.801 2.094z"></path>
</symbol>
<symbol id="icon-paper-plane" viewBox="0 0 20 20">
<title>paper-plane</title>
<path d="M18.64 2.634c-0.344 0.121-17.321 6.104-17.656 6.222-0.284 0.1-0.347 0.345-0.010 0.479 0.401 0.161 3.796 1.521 3.796 1.521v0l2.25 0.901c0 0 10.838-7.958 10.984-8.066 0.148-0.108 0.318 0.095 0.211 0.211s-7.871 8.513-7.871 8.513v0.002l-0.452 0.503 0.599 0.322c0 0 4.65 2.504 4.982 2.682 0.291 0.156 0.668 0.027 0.752-0.334 0.099-0.426 2.845-12.261 2.906-12.525 0.079-0.343-0.148-0.552-0.491-0.431zM7 17.162c0 0.246 0.139 0.315 0.331 0.141 0.251-0.229 2.85-2.561 2.85-2.561l-3.181-1.644v4.064z"></path>
</symbol>
<symbol id="icon-user" viewBox="0 0 20 20">
<title>user</title>
<path d="M7.725 2.146c-1.016 0.756-1.289 1.953-1.239 2.59 0.064 0.779 0.222 1.793 0.222 1.793s-0.313 0.17-0.313 0.854c0.109 1.717 0.683 0.976 0.801 1.729 0.284 1.814 0.933 1.491 0.933 2.481 0 1.649-0.68 2.42-2.803 3.334-2.13 0.918-4.326 2.073-4.326 4.073v1h18v-1c0-2-2.197-3.155-4.328-4.072-2.123-0.914-2.801-1.684-2.801-3.334 0-0.99 0.647-0.667 0.932-2.481 0.119-0.753 0.692-0.012 0.803-1.729 0-0.684-0.314-0.854-0.314-0.854s0.158-1.014 0.221-1.793c0.065-0.817-0.398-2.561-2.3-3.096-0.333-0.34-0.558-0.881 0.466-1.424-2.24-0.105-2.761 1.067-3.954 1.929z"></path>
</symbol>
<symbol id="icon-facebook-with-circle" viewBox="0 0 20 20">
<title>facebook-with-circle</title>
<path d="M10 0.4c-5.302 0-9.6 4.298-9.6 9.6s4.298 9.6 9.6 9.6 9.6-4.298 9.6-9.6-4.298-9.6-9.6-9.6zM12.274 7.034h-1.443c-0.171 0-0.361 0.225-0.361 0.524v1.042h1.805l-0.273 1.486h-1.532v4.461h-1.703v-4.461h-1.545v-1.486h1.545v-0.874c0-1.254 0.87-2.273 2.064-2.273h1.443v1.581z"></path>
</symbol>
<symbol id="icon-instagram-with-circle" viewBox="0 0 20 20">
<title>instagram-with-circle</title>
<path d="M13 10c0 1.657-1.343 3-3 3s-3-1.343-3-3c0-0.171 0.018-0.338 0.049-0.5h-1.049v3.997c0 0.278 0.225 0.503 0.503 0.503h6.995c0.277 0 0.502-0.225 0.502-0.503v-3.997h-1.049c0.031 0.162 0.049 0.329 0.049 0.5zM10 12c1.104 0 2-0.896 2-2s-0.896-2-2-2-2 0.896-2 2 0.896 2 2 2zM12.4 7.9h1.199c0.166 0 0.301-0.135 0.301-0.3v-1.199c0-0.166-0.135-0.301-0.301-0.301h-1.199c-0.166 0-0.301 0.135-0.301 0.301v1.199c0.001 0.165 0.136 0.3 0.301 0.3zM10 0.4c-5.302 0-9.6 4.298-9.6 9.6s4.298 9.6 9.6 9.6c5.302 0 9.6-4.298 9.6-9.6s-4.298-9.6-9.6-9.6zM15 13.889c0 0.611-0.5 1.111-1.111 1.111h-7.778c-0.611 0-1.111-0.5-1.111-1.111v-7.778c0-0.611 0.5-1.111 1.111-1.111h7.778c0.611 0 1.111 0.5 1.111 1.111v7.778z"></path>
</symbol>
<symbol id="icon-twitter-with-circle" viewBox="0 0 20 20">
<title>twitter-with-circle</title>
<path d="M10 0.4c-5.302 0-9.6 4.298-9.6 9.6s4.298 9.6 9.6 9.6 9.6-4.298 9.6-9.6-4.298-9.6-9.6-9.6zM13.905 8.264c0.004 0.082 0.005 0.164 0.005 0.244 0 2.5-1.901 5.381-5.379 5.381-1.068 0-2.062-0.312-2.898-0.85 0.147 0.018 0.298 0.025 0.451 0.025 0.886 0 1.701-0.301 2.348-0.809-0.827-0.016-1.525-0.562-1.766-1.312 0.115 0.021 0.233 0.033 0.355 0.033 0.172 0 0.34-0.023 0.498-0.066-0.865-0.174-1.517-0.938-1.517-1.854v-0.023c0.255 0.141 0.547 0.227 0.857 0.237-0.508-0.34-0.841-0.918-0.841-1.575 0-0.346 0.093-0.672 0.256-0.951 0.933 1.144 2.325 1.896 3.897 1.977-0.033-0.139-0.049-0.283-0.049-0.432 0-1.043 0.846-1.891 1.891-1.891 0.543 0 1.035 0.23 1.38 0.598 0.431-0.086 0.835-0.242 1.2-0.459-0.141 0.441-0.44 0.812-0.831 1.047 0.383-0.047 0.747-0.148 1.086-0.299-0.253 0.379-0.574 0.713-0.943 0.979z"></path>
</symbol>
<symbol id="icon-printer" viewBox="0 0 33 33">
<title>printer</title>
<path d="M8.25 2.063h16.5v4.125h-16.5v-4.125z"></path>
<path d="M30.938 8.25h-28.875c-1.134 0-2.063 0.928-2.063 2.063v10.313c0 1.134 0.928 2.063 2.063 2.063h6.188v8.25h16.5v-8.25h6.188c1.134 0 2.063-0.928 2.063-2.063v-10.313c0-1.134-0.928-2.063-2.063-2.063zM4.125 14.438c-1.139 0-2.063-0.923-2.063-2.063s0.923-2.063 2.063-2.063 2.063 0.923 2.063 2.063-0.923 2.063-2.063 2.063zM22.688 28.875h-12.375v-10.313h12.375v10.313z"></path>
</symbol>
<symbol id="icon-search" viewBox="0 0 33 33">
<title>search</title>
<path d="M31.977 28.082l-7.817-6.648c-0.808-0.727-1.672-1.061-2.37-1.029 1.845-2.161 2.96-4.965 2.96-8.030 0-6.835-5.54-12.375-12.375-12.375s-12.375 5.54-12.375 12.375 5.54 12.375 12.375 12.375c3.065 0 5.869-1.115 8.030-2.96-0.032 0.698 0.302 1.562 1.029 2.37l6.648 7.817c1.138 1.265 2.998 1.371 4.132 0.237s1.028-2.994-0.237-4.132zM12.375 20.625c-4.556 0-8.25-3.694-8.25-8.25s3.694-8.25 8.25-8.25 8.25 3.694 8.25 8.25-3.694 8.25-8.25 8.25z"></path>
</symbol>
<symbol id="icon-menu" viewBox="0 0 33 33">
<title>menu</title>
<path d="M2.063 6.188h28.875v6.188h-28.875zM2.063 14.438h28.875v6.188h-28.875zM2.063 22.688h28.875v6.188h-28.875z"></path>
</symbol>
<symbol id="icon-arrow-right2" viewBox="0 0 33 33">
<title>arrow-right2</title>
<path d="M20.021 28.271l10.313-10.313c0.805-0.805 0.805-2.111 0-2.917l-10.313-10.313c-0.805-0.805-2.111-0.805-2.917 0s-0.805 2.111 0 2.917l6.792 6.792h-19.771c-1.139 0-2.063 0.923-2.063 2.063s0.923 2.063 2.063 2.063h19.771l-6.792 6.792c-0.403 0.403-0.604 0.931-0.604 1.458s0.201 1.056 0.604 1.458c0.805 0.805 2.111 0.805 2.917 0z"></path>
</symbol>
<symbol id="icon-file-pdf" viewBox="0 0 33 33">
<title>file-pdf</title>
<path d="M27.135 18.997c-0.44-0.433-1.415-0.663-2.899-0.682-1.005-0.011-2.214 0.077-3.486 0.255-0.57-0.329-1.157-0.686-1.617-1.117-1.239-1.157-2.274-2.764-2.919-4.531 0.042-0.165 0.078-0.31 0.111-0.458 0 0 0.698-3.966 0.513-5.307-0.026-0.184-0.041-0.237-0.090-0.38l-0.061-0.156c-0.19-0.438-0.562-0.902-1.146-0.877l-0.352-0.011c-0.651 0-1.182 0.333-1.321 0.831-0.423 1.561 0.013 3.896 0.805 6.92l-0.203 0.493c-0.567 1.382-1.277 2.773-1.904 4.001l-0.081 0.16c-0.659 1.29-1.258 2.386-1.8 3.314l-0.56 0.296c-0.041 0.022-1 0.529-1.226 0.665-1.91 1.14-3.175 2.434-3.385 3.462-0.067 0.328-0.017 0.747 0.323 0.941l0.542 0.273c0.235 0.118 0.483 0.177 0.737 0.177 1.36 0 2.939-1.694 5.114-5.49 2.511-0.818 5.371-1.497 7.877-1.872 1.91 1.075 4.258 1.822 5.741 1.822 0.263 0 0.49-0.025 0.675-0.074 0.284-0.075 0.524-0.237 0.67-0.457 0.288-0.433 0.346-1.029 0.268-1.64-0.023-0.181-0.168-0.405-0.324-0.558zM6.821 26.234c0.248-0.678 1.23-2.019 2.681-3.208 0.091-0.074 0.316-0.285 0.522-0.48-1.518 2.421-2.535 3.386-3.203 3.689zM15.418 6.435c0.437 0 0.686 1.102 0.707 2.135s-0.221 1.758-0.521 2.295c-0.248-0.794-0.368-2.046-0.368-2.865 0 0-0.018-1.565 0.182-1.565v0zM12.854 20.544c0.305-0.545 0.621-1.12 0.945-1.73 0.789-1.493 1.288-2.66 1.659-3.621 0.738 1.343 1.658 2.485 2.739 3.4 0.135 0.114 0.278 0.229 0.428 0.343-2.198 0.435-4.098 0.964-5.771 1.607v0zM26.713 20.42c-0.134 0.084-0.517 0.132-0.764 0.132-0.796 0-1.781-0.364-3.162-0.956 0.531-0.039 1.017-0.059 1.453-0.059 0.799 0 1.035-0.003 1.816 0.196s0.791 0.604 0.657 0.687v0z"></path>
<path d="M29.578 7.382c-0.716-0.976-1.714-2.117-2.809-3.213s-2.237-2.094-3.213-2.809c-1.662-1.219-2.468-1.36-2.93-1.36h-15.984c-1.422 0-2.578 1.157-2.578 2.578v27.844c0 1.422 1.156 2.578 2.578 2.578h23.719c1.422 0 2.578-1.157 2.578-2.578v-20.109c0-0.462-0.141-1.268-1.36-2.93v0zM25.31 5.628c0.989 0.989 1.766 1.882 2.339 2.622h-4.961v-4.961c0.741 0.573 1.633 1.35 2.622 2.339v0zM28.875 30.422c0 0.279-0.236 0.516-0.516 0.516h-23.719c-0.279 0-0.516-0.236-0.516-0.516v-27.844c0-0.279 0.236-0.516 0.516-0.516 0 0 15.983-0 15.984 0v7.219c0 0.57 0.462 1.031 1.031 1.031h7.219v20.109z"></path>
</symbol>
</defs>
</svg>
